<svg xmlns="http://www.w3.org/2000/svg" width="554.973" height="186.086" viewBox="0 0 554.973 186.086"><path fill="#37474F" d="M323.588 47.816c-25.381-25.859-66.921-25.749-92.193 0-24.744 25.217-24.561 65.424 0 90.453 25.38 25.859 66.921 25.75 92.193 0 25.002-25.478 24.273-65.715 0-90.453zm-88.331 11.93a53.345 53.345 0 0 1 11.271 27.909h-22.572c1.046-10.472 5.108-20.07 11.301-27.909zm-11.301 38.686h22.573a53.34 53.34 0 0 1-11.271 27.91c-6.195-7.84-10.256-17.438-11.302-27.91zm48.147 48.146c-11.1-1.107-21.215-5.605-29.297-12.438a64.058 64.058 0 0 0 14.542-35.709h14.754v48.147zm0-58.923h-14.754a64.058 64.058 0 0 0-14.542-35.708c8.082-6.832 18.197-11.33 29.297-12.439v48.147zm58.924 0h-22.572a53.338 53.338 0 0 1 11.27-27.909c6.194 7.839 10.255 17.436 11.302 27.909zm-48.146-48.147c11.1 1.108 21.213 5.606 29.296 12.439a64.062 64.062 0 0 0-14.542 35.708h-14.754V39.508zm0 107.07V98.432h14.754a64.065 64.065 0 0 0 14.542 35.709c-8.083 6.832-18.197 11.328-29.296 12.437zm36.845-20.236a53.346 53.346 0 0 1-11.271-27.91h22.572c-1.046 10.472-5.108 20.07-11.301 27.91zM29.548 84.575H18.629v-7.68h31.079v7.68h-11.04v32.759h-9.12V84.575zm34.2-7.68v15.54h15.059v-15.54h9.12v40.439h-9.12v-16.92H63.748v16.92h-9.12V76.895h9.12zm41.28 0v23.219c0 7.02 2.7 10.56 7.319 10.56 4.8 0 7.44-3.359 7.44-10.56V76.895h9.12v22.679c0 12.479-6.3 18.42-16.859 18.42-10.2 0-16.139-5.701-16.139-18.54V76.895h9.119zm31.8.54c2.94-.48 7.26-.84 12.179-.84 6 0 10.2.9 13.08 3.18 2.46 1.92 3.78 4.8 3.78 8.52 0 5.1-3.66 8.639-7.14 9.9v.181c2.82 1.139 4.38 3.779 5.4 7.499 1.26 4.62 2.46 9.899 3.24 11.46h-9.359c-.6-1.201-1.62-4.44-2.76-9.42-1.14-5.1-2.88-6.42-6.66-6.48h-2.7v15.9h-9.06v-39.9zm9.059 17.399h3.6c4.56 0 7.26-2.279 7.26-5.819 0-3.66-2.52-5.58-6.72-5.58-2.22 0-3.479.12-4.14.3v11.099zm26.82 13.08c2.4 1.26 6.24 2.52 10.14 2.52 4.2 0 6.42-1.74 6.42-4.379 0-2.521-1.92-3.961-6.78-5.641-6.72-2.4-11.16-6.119-11.16-12 0-6.899 5.82-12.119 15.299-12.119 4.62 0 7.92.9 10.32 2.04l-2.04 7.32c-1.56-.78-4.5-1.92-8.4-1.92-3.959 0-5.879 1.86-5.879 3.9 0 2.58 2.22 3.72 7.5 5.7 7.14 2.64 10.439 6.36 10.439 12.06 0 6.779-5.16 12.539-16.259 12.539-4.62 0-9.18-1.26-11.459-2.52l1.859-7.5zm187.649-30.478c2.399-.42 7.199-.84 11.819-.84 5.58 0 9 .54 12 2.28 2.819 1.5 4.8 4.26 4.8 7.98 0 3.54-2.101 6.839-6.66 8.58v.119c4.62 1.2 8.04 4.74 8.04 9.9 0 3.719-1.681 6.599-4.2 8.639-2.939 2.34-7.859 3.66-15.899 3.66-4.5 0-7.859-.3-9.899-.6V77.436zm9.06 15.479h3c4.859 0 7.38-1.98 7.38-4.98 0-3.06-2.34-4.68-6.48-4.68-2.04 0-3.18.12-3.899.24v9.42zm0 17.939c.9.12 1.979.12 3.54.12 4.14 0 7.8-1.62 7.8-5.88 0-4.021-3.66-5.64-8.22-5.64h-3.12v11.4zm27.18-33.418c2.399-.42 7.199-.84 11.819-.84 5.58 0 9 .54 12 2.28 2.819 1.5 4.8 4.26 4.8 7.98 0 3.54-2.101 6.839-6.66 8.58v.119c4.62 1.2 8.04 4.74 8.04 9.9 0 3.719-1.681 6.599-4.2 8.639-2.939 2.34-7.859 3.66-15.899 3.66-4.5 0-7.859-.3-9.899-.6V77.436zm9.059 15.479h3c4.859 0 7.38-1.98 7.38-4.98 0-3.06-2.34-4.68-6.48-4.68-2.039 0-3.18.12-3.899.24v9.42zm0 17.939c.899.12 1.979.12 3.54.12 4.14 0 7.8-1.62 7.8-5.88 0-4.021-3.66-5.64-8.22-5.64h-3.12v11.4zm36.36-3.899l-2.88 10.379h-9.42l12.3-40.438h11.999l12.6 40.438h-9.899l-3.12-10.379h-11.58zm10.258-6.84l-2.52-8.58c-.72-2.4-1.439-5.4-2.04-7.8h-.12c-.6 2.4-1.199 5.46-1.859 7.8l-2.4 8.58h8.939zm19.742-23.219h9.12v32.759h16.079v7.68h-25.199V76.896zm30.659 0h9.12v32.759h16.079v7.68h-25.199V76.896z"/></svg>