<?xml version="1.0" encoding="utf-8"?>
<!-- Generator: Adobe Illustrator 15.0.0, SVG Export Plug-In . SVG Version: 6.00 Build 0)  -->
<!DOCTYPE svg PUBLIC "-//W3C//DTD SVG 1.1//EN" "http://www.w3.org/Graphics/SVG/1.1/DTD/svg11.dtd">
<svg version="1.1" id="Layer_1" xmlns="http://www.w3.org/2000/svg" xmlns:xlink="http://www.w3.org/1999/xlink" x="0px" y="0px"
	 width="554.973px" height="186.086px" viewBox="0 0 554.973 186.086" enable-background="new 0 0 554.973 186.086"
	 xml:space="preserve">
<g>
	<g>
		<path fill="#37474F" d="M323.588,47.816c-25.381-25.859-66.921-25.749-92.193,0c-24.744,25.217-24.561,65.424,0,90.453
			c25.38,25.859,66.921,25.75,92.193,0C348.59,112.791,347.861,72.554,323.588,47.816z M235.257,59.746
			c6.369,8.055,10.257,17.683,11.271,27.909h-22.572C225.002,77.183,229.064,67.585,235.257,59.746z M223.956,98.432h22.573
			c-1.014,10.227-4.901,19.854-11.271,27.91C229.063,118.502,225.002,108.904,223.956,98.432z M272.103,146.578
			c-11.1-1.107-21.215-5.605-29.297-12.438c8.417-10.172,13.459-22.549,14.542-35.709h14.754V146.578z M272.103,87.655h-14.754
			c-1.083-13.159-6.125-25.536-14.542-35.708c8.082-6.832,18.197-11.33,29.297-12.439V87.655z M331.027,87.655h-22.572
			c1.014-10.226,4.9-19.853,11.27-27.909C325.919,67.585,329.98,77.182,331.027,87.655z M282.881,39.508
			c11.1,1.108,21.213,5.606,29.296,12.439c-8.417,10.171-13.458,22.549-14.542,35.708h-14.754V39.508z M282.881,146.578V98.432
			h14.754c1.084,13.16,6.125,25.537,14.542,35.709C304.094,140.973,293.98,145.469,282.881,146.578z M319.726,126.342
			c-6.37-8.057-10.257-17.684-11.271-27.91h22.572C329.981,108.904,325.919,118.502,319.726,126.342z"/>
	</g>
</g>
<g>
	<path fill="#37474F" d="M29.548,84.575H18.629v-7.68h31.079v7.68h-11.04v32.759h-9.12V84.575z"/>
	<path fill="#37474F" d="M63.748,76.895v15.54h15.059v-15.54h9.12v40.439h-9.12v-16.92H63.748v16.92h-9.12V76.895H63.748z"/>
	<path fill="#37474F" d="M105.028,76.895v23.219c0,7.02,2.7,10.56,7.319,10.56c4.8,0,7.44-3.359,7.44-10.56V76.895h9.12v22.679
		c0,12.479-6.3,18.42-16.859,18.42c-10.2,0-16.139-5.701-16.139-18.54V76.895H105.028z"/>
	<path fill="#37474F" d="M136.828,77.435c2.94-0.48,7.26-0.84,12.179-0.84c6,0,10.2,0.9,13.08,3.18c2.46,1.92,3.78,4.8,3.78,8.52
		c0,5.1-3.66,8.639-7.14,9.9v0.181c2.82,1.139,4.38,3.779,5.4,7.499c1.26,4.62,2.46,9.899,3.24,11.46h-9.359
		c-0.6-1.201-1.62-4.44-2.76-9.42c-1.14-5.1-2.88-6.42-6.66-6.48h-2.7v15.9h-9.06V77.435z M145.887,94.834h3.6
		c4.56,0,7.26-2.279,7.26-5.819c0-3.66-2.52-5.58-6.72-5.58c-2.22,0-3.479,0.12-4.14,0.3V94.834z"/>
	<path fill="#37474F" d="M172.707,107.914c2.4,1.26,6.24,2.52,10.14,2.52c4.2,0,6.42-1.74,6.42-4.379c0-2.521-1.92-3.961-6.78-5.641
		c-6.72-2.4-11.16-6.119-11.16-12c0-6.899,5.82-12.119,15.299-12.119c4.62,0,7.92,0.9,10.32,2.04l-2.04,7.32
		c-1.56-0.78-4.5-1.92-8.4-1.92c-3.959,0-5.879,1.86-5.879,3.9c0,2.58,2.22,3.72,7.5,5.7c7.14,2.64,10.439,6.36,10.439,12.06
		c0,6.779-5.16,12.539-16.259,12.539c-4.62,0-9.18-1.26-11.459-2.52L172.707,107.914z"/>
</g>
<g>
	<path fill="#37474F" d="M360.356,77.436c2.399-0.42,7.199-0.84,11.819-0.84c5.58,0,9,0.54,12,2.28c2.819,1.5,4.8,4.26,4.8,7.98
		c0,3.54-2.101,6.839-6.66,8.58v0.119c4.62,1.2,8.04,4.74,8.04,9.9c0,3.719-1.681,6.599-4.2,8.639
		c-2.939,2.34-7.859,3.66-15.899,3.66c-4.5,0-7.859-0.3-9.899-0.6V77.436z M369.416,92.915h3c4.859,0,7.38-1.98,7.38-4.98
		c0-3.06-2.34-4.68-6.48-4.68c-2.04,0-3.18,0.12-3.899,0.24V92.915z M369.416,110.854c0.9,0.12,1.979,0.12,3.54,0.12
		c4.14,0,7.8-1.62,7.8-5.88c0-4.021-3.66-5.64-8.22-5.64h-3.12V110.854z"/>
	<path fill="#37474F" d="M396.596,77.436c2.399-0.42,7.199-0.84,11.819-0.84c5.58,0,9,0.54,12,2.28c2.819,1.5,4.8,4.26,4.8,7.98
		c0,3.54-2.101,6.839-6.66,8.58v0.119c4.62,1.2,8.04,4.74,8.04,9.9c0,3.719-1.681,6.599-4.2,8.639
		c-2.939,2.34-7.859,3.66-15.899,3.66c-4.5,0-7.859-0.3-9.899-0.6V77.436z M405.655,92.915h3c4.859,0,7.38-1.98,7.38-4.98
		c0-3.06-2.34-4.68-6.48-4.68c-2.039,0-3.18,0.12-3.899,0.24V92.915z M405.655,110.854c0.899,0.12,1.979,0.12,3.54,0.12
		c4.14,0,7.8-1.62,7.8-5.88c0-4.021-3.66-5.64-8.22-5.64h-3.12V110.854z"/>
	<path fill="#37474F" d="M442.015,106.955l-2.88,10.379h-9.42l12.3-40.438h11.999l12.6,40.438h-9.899l-3.12-10.379H442.015z
		 M452.273,100.115l-2.52-8.58c-0.72-2.4-1.439-5.4-2.04-7.8h-0.12c-0.6,2.4-1.199,5.46-1.859,7.8l-2.4,8.58H452.273z"/>
	<path fill="#37474F" d="M472.015,76.896h9.12v32.759h16.079v7.68h-25.199V76.896z"/>
	<path fill="#37474F" d="M502.674,76.896h9.12v32.759h16.079v7.68h-25.199V76.896z"/>
</g>
</svg>
